<svg width="227" height="62" viewBox="-1000 0 5000 1024" xmlns="http://www.w3.org/2000/svg" p-id="2913" id="mx_n_1712040019457" xmlns:xlink="http://www.w3.org/1999/xlink">
  <path d="M52.412724 639.448034H0V398.439098h52.412724v95.162052h93.818137V398.439098H198.387601v241.008936h-52.15674v-99.83376H52.412724z m226.161865-106.425348h62.524092c-1.215924-17.662896-8.511468-30.014124-28.990188-30.014124a31.998 31.998 0 0 0-33.533904 30.014124m39.741516 109.497157a83.1948 83.1948 0 0 1-89.5944-88.634461 83.770764 83.770764 0 0 1 82.618836-90.618336c51.1968 0 76.7952 34.365852 76.795201 85.626648v19.1988H278.574589A43.261296 43.261296 0 0 0 326.379601 601.626398a81.850884 81.850884 0 0 0 47.421036-13.887132h1.91988v39.741516a98.041872 98.041872 0 0 1-57.5964 14.975065M524.767202 538.39835L497.632898 639.384038h-45.885132L399.335042 469.858634v-1.91988h50.108868L477.92213 569.628398l27.006312-101.689644h40.893444L573.212174 569.628398l28.926192-101.369664h48.188989v1.91988l-52.476721 169.205424h-45.821136L524.767202 538.39835m210.098869 103.737517c-41.5974 0-58.620336-16.574964-58.620336-55.548529V397.28717h51.1968v185.5884c0 11.967252 4.671708 16.190988 14.71908 16.190988a38.3976 38.3976 0 0 0 11.51928-2.303856h0.767952v41.981376a60.668208 60.668208 0 0 1-19.1988 3.071809m83.770764-108.793201h62.460096c-1.151928-17.662896-8.447472-30.014124-28.926192-30.014124a31.998 31.998 0 0 0-33.533904 30.014124m39.67752 109.561153a83.1948 83.1948 0 0 1-89.5944-88.634461A83.83476 83.83476 0 0 1 851.146803 463.331042c51.1968 0 76.7952 34.301856 76.795201 85.562652v19.1988h-109.433161a43.261296 43.261296 0 0 0 47.805012 33.533904 82.298856 82.298856 0 0 0 47.421037-13.887132h1.91988v39.67752a97.337916 97.337916 0 0 1-57.596401 15.039061m279.534529-174.645085h37.757641v40.829448h-37.757641v69.75564c0 15.03906 5.75964 22.014624 21.246673 22.014624a47.165052 47.165052 0 0 0 15.423036-2.367852h1.087932v40.125492a89.5944 89.5944 0 0 1-31.166053 4.991689c-41.27742 0-57.5964-19.1988-57.5964-62.460097V508.768202h-64.891944v69.75564c0 15.03906 5.75964 22.014624 21.11868 22.014624a47.549028 47.549028 0 0 0 15.487032-2.367852h1.151928v40.125492a89.5944 89.5944 0 0 1-31.294044 4.991689c-41.213424 0-57.5964-19.1988-57.5964-62.460097V508.768202h-26.23836v-40.829448h26.23836v-47.101056h51.1968v47.101056h65.211924v-47.101056h51.1968v47.101056m208.690957 47.869008a34.685832 34.685832 0 0 0 39.35754-36.669708 34.87782 34.87782 0 0 0-39.35754-37.373664h-33.149928v74.043372z m92.602213-36.669708a78.011124 78.011124 0 0 1-88.250485 80.95494h-37.501656v78.267108H1260.721205V397.351166h89.5944a78.267108 78.267108 0 0 1 88.378477 81.722892m112.568964 105.849384V570.268358a59.51628 59.51628 0 0 0-28.094244-5.75964c-16.574964 0-26.622336 6.3996-26.622336 20.030748s10.047372 20.47872 24.95844 20.47872a29.886132 29.886132 0 0 0 29.75814-20.094744m1.535904 37.053684a57.91638 57.91638 0 0 1-45.565152 20.030749 55.932504 55.932504 0 0 1-60.860196-56.700457c0-33.533904 27.326292-55.868508 66.683832-55.868508a135.415537 135.415537 0 0 1 38.3976 5.75964v-3.071808c0-18.494844-10.431348-26.55834-37.821636-26.55834a97.657896 97.657896 0 0 0-48.188988 12.7992h-1.855884v-40.63746a127.224048 127.224048 0 0 1 58.940316-14.207112c51.708768 0 79.803012 24.63846 79.803012 67.83576v107.577276h-49.340916v-16.95894m74.23536-68.987688a85.818636 85.818636 0 0 1 89.914381-89.5944 81.466908 81.466908 0 0 1 47.805012 12.7992v43.581276h-1.983876a63.484032 63.484032 0 0 0-39.293544-13.43916 43.261296 43.261296 0 0 0-44.7972 46.589088 43.005312 43.005312 0 0 0 44.7972 46.333104 63.548028 63.548028 0 0 0 39.293544-13.567152h1.983876v43.581276a81.082932 81.082932 0 0 1-47.805012 12.799201 85.562652 85.562652 0 0 1-89.914381-89.594401m220.850197 7.9995v78.331104h-51.1968V397.799138h51.1968V535.070558l51.1968-67.899756h57.596401v1.983876l-61.756141 77.819136 61.756141 89.5944v1.983876h-58.236361l-51.1968-77.883132m223.282045 23.9985V570.268358a58.748328 58.748328 0 0 0-28.030248-5.75964c-16.574964 0-26.622336 6.3996-26.622336 20.030748s10.047372 20.47872 25.022436 20.47872a29.75814 29.75814 0 0 0 29.694144-20.094744z m1.5999 37.053684a57.5964 57.5964 0 0 1-45.43716 20.030749 55.9965 55.9965 0 0 1-60.988188-56.700457c0-33.533904 27.326292-55.868508 66.811824-55.868508a134.391601 134.391601 0 0 1 38.013624 5.75964v-2.815824c0-18.494844-10.367352-26.55834-37.75764-26.55834a97.849884 97.849884 0 0 0-48.188988 12.7992h-1.855884v-40.63746a127.992 127.992 0 0 1 58.940316-14.207112c51.772764 0 79.803012 24.63846 79.803012 67.83576v107.577276h-49.340916v-16.95894m135.479533-127.480032a45.309168 45.309168 0 0 1 41.5974-29.694144 41.149428 41.149428 0 0 1 16.63896 3.071808v48.572964h-1.983876a58.364352 58.364352 0 0 0-22.3986-3.83976 31.998 31.998 0 0 0-32.381976 27.006312v98.681832h-50.812825V466.72283h49.340917v27.774264m193.331916 86.458596v-55.164552a37.821636 37.821636 0 0 0-32.445972-17.726892c-22.3986 0-37.373664 16.190988-37.373664 45.501156s14.975064 44.7972 37.373664 44.7972a37.75764 37.75764 0 0 0 32.381976-17.790888z m1.471908 40.445472a60.924192 60.924192 0 0 1-51.1968 21.630649c-43.901256 0-72.123492-40.125492-72.123492-89.594401s28.222236-89.5944 72.123492-89.5944a61.308168 61.308168 0 0 1 49.404912 19.582776V398.183114h50.876821v240.94494h-49.340917v-17.790888M0.63996 717.907131h148.854697v29.310168H34.173864v73.5954h104.505469v28.542216H34.173864v80.250985h115.192801v29.246172H0.63996v-240.880945m271.343041 67.771764c38.3976 0 59.324292 25.086432 59.324292 66.299856v106.809325h-31.998v-106.041373a33.469908 33.469908 0 0 0-35.453784-37.75764 44.7972 44.7972 0 0 0-42.813324 30.846072v112.952941h-31.998v-169.589401h31.998v24.702456a58.428348 58.428348 0 0 1 51.1968-28.15824m144.950941 2.623836H460.771202v27.326292h-43.901256v91.386289c0 19.1988 10.047372 25.5984 28.15824 25.5984a39.9975 39.9975 0 0 0 14.271108-2.367852H460.771202v27.390288a52.220736 52.220736 0 0 1-20.030748 3.455784c-39.741516 0-55.548528-18.110868-55.548528-51.1968v-94.266109h-29.630149v-27.326292h29.310169v-44.7972h31.998v44.7972M514.015874 857.610399h84.410724c-1.151928-25.022436-13.503156-44.285232-39.741516-44.285232a46.71708 46.71708 0 0 0-44.7972 44.285232z m50.492844 104.889445a79.931004 79.931004 0 0 1-83.706768-86.394601 80.698956 80.698956 0 0 1 77.563152-90.170364c46.653084 0 70.907568 33.533904 70.907568 83.1948v14.655084h-116.47272a51.900756 51.900756 0 0 0 55.932504 51.196801 72.123492 72.123492 0 0 0 47.421036-15.423036h1.215924v28.15824a84.026748 84.026748 0 0 1-52.860696 15.03906m135.671521-147.190801a44.7972 44.7972 0 0 1 41.981376-28.926192 40.765452 40.765452 0 0 1 16.63896 2.687832v31.614024h-1.151928a49.724892 49.724892 0 0 0-20.094744-3.455784 38.973564 38.973564 0 0 0-37.373664 30.846072v110.649085h-31.998v-169.589401h31.998v26.23836m160.885944 118.328605c31.614024 0 50.172864-25.086432 50.172865-59.388289s-18.55884-59.324292-50.172865-59.324292a47.741016 47.741016 0 0 0-41.981376 26.942316v65.147929a47.421036 47.421036 0 0 0 41.981376 26.622336m5.43966-147.638773a79.611024 79.611024 0 0 1 77.499157 88.250484 79.611024 79.611024 0 0 1-77.499157 88.314481 61.500156 61.500156 0 0 1-47.485032-22.3986V1024h-31.998v-234.737329h31.998v19.1988a60.540216 60.540216 0 0 1 47.485032-22.782576m147.510781 29.246172a44.7972 44.7972 0 0 1 41.91738-28.926192 40.765452 40.765452 0 0 1 16.63896 2.687832v31.614024h-1.087932a49.788888 49.788888 0 0 0-20.030748-3.455784 38.973564 38.973564 0 0 0-37.43766 30.846072v110.649085h-31.998v-169.589401h31.998v26.23836m105.017436-94.458096a20.286732 20.286732 0 0 1 20.47872 19.966752 20.15874 20.15874 0 0 1-20.47872 20.030748 20.030748 20.030748 0 1 1 0-40.061496m-15.999 238.065121h31.998v-169.589401h-31.998z m146.294857-99.769765c24.382476 7.67952 51.1968 17.726892 51.1968 50.108869 0 34.685832-28.47822 52.412724-65.083932 52.412724a98.489844 98.489844 0 0 1-57.5964-15.423036v-30.462096h1.535904a83.1948 83.1948 0 0 0 55.548528 19.1988c18.174864 0 34.365852-6.911568 34.365852-21.566652s-13.503156-18.494844-40.125492-27.390289c-23.870508-7.67952-50.492844-16.574964-50.492844-48.572964a54.460596 54.460596 0 0 1 61.308168-52.028748 91.066308 91.066308 0 0 1 52.028748 13.887132v30.846072h-1.087932a77.11518 77.11518 0 0 0-50.23686-17.726892c-20.030748 0-31.166052 8.831448-31.166052 20.7987 0 13.503156 12.287232 17.342916 39.67752 26.23836m111.737016-1.343916h84.410725c-1.151928-25.022436-13.503156-44.285232-39.741517-44.285232a46.653084 46.653084 0 0 0-44.7972 44.285232m50.556841 104.889445a79.931004 79.931004 0 0 1-83.706769-86.394601 80.698956 80.698956 0 0 1 77.563152-90.170364c46.653084 0 70.843572 33.533904 70.843573 83.1948v14.655084H1359.915005a51.900756 51.900756 0 0 0 55.932505 51.196801 72.251484 72.251484 0 0 0 47.421036-15.423036h1.151928v28.15824a83.83476 83.83476 0 0 1-52.7967 15.03906" fill="#ffffff" p-id="2914"></path>
  <path d="M52.47672 52.604712h734.098119v136.055497H52.47672zM0 241.008937h838.987563V0.063996H0z" fill="#ffffff" p-id="2915"></path>
</svg>
